<svg width="25" height="25" viewBox="0 0 25 25" fill="none" xmlns="http://www.w3.org/2000/svg">
<g clip-path="url(#clip0)">
<path d="M24.1404 14.3105C24.8564 8.28351 23.7964 4.47851 21.8844 2.75751L21.8854 2.75651C18.7994 -0.182495 8.37737 -0.617495 4.68537 2.88851C3.02737 4.60351 2.44337 7.12051 2.37937 10.2365C2.31537 13.3535 2.23937 19.1925 7.68037 20.7765H7.68537L7.68037 23.1955C7.68037 23.1955 7.64337 24.1755 8.26937 24.3725C8.98537 24.6045 9.30937 24.1495 11.5364 21.4895C15.2604 21.8125 18.1204 21.0725 18.4454 20.9645C19.1974 20.7125 23.4524 20.1495 24.1404 14.3105ZM11.9034 19.7875C11.9034 19.7875 9.54637 22.7265 8.81337 23.4895C8.57337 23.7375 8.31037 23.7145 8.31437 23.2225C8.31437 22.8995 8.33237 19.2065 8.33237 19.2065C3.71937 17.8845 3.99137 12.9125 4.04137 10.3115C4.09137 7.70951 4.56737 5.57851 5.97137 4.14351C9.21037 1.10651 18.3474 1.78551 20.6754 3.97351C23.5214 6.49651 22.5084 13.6245 22.5144 13.8675C21.9294 18.7415 18.4814 19.0505 17.8474 19.2615C17.5764 19.3515 15.0614 19.9985 11.9034 19.7875Z" fill="#FF8753"/>
<path d="M13.2073 4.71448C12.8223 4.71448 12.8223 5.31448 13.2073 5.31948C16.1943 5.34248 18.6543 7.42448 18.6813 11.2435C18.6813 11.6465 19.2713 11.6415 19.2663 11.2385H19.2653C19.2333 7.12348 16.5473 4.73748 13.2073 4.71448Z" fill="#FF8753"/>
<path d="M17.1364 10.6105C17.1274 11.0085 17.7164 11.0275 17.7214 10.6245C17.7704 8.35552 16.3714 6.48652 13.7424 6.28952C13.3574 6.26152 13.3174 6.86652 13.7014 6.89452C15.9814 7.06752 17.1824 8.62352 17.1364 10.6105Z" fill="#FF8753"/>
<path d="M16.5063 13.1915C16.0123 12.9055 15.5093 13.0835 15.3013 13.3645L14.8663 13.9275C14.6453 14.2135 14.2323 14.1755 14.2323 14.1755C11.2183 13.3785 10.4123 10.2245 10.4123 10.2245C10.4123 10.2245 10.3753 9.79746 10.6513 9.56846L11.1953 9.11846C11.4673 8.90246 11.6393 8.38246 11.3623 7.87146C10.6223 6.53446 10.1253 6.07346 9.87232 5.71946C9.60632 5.38646 9.20632 5.31146 8.79032 5.53646H8.78132C7.91632 6.04246 6.96932 6.98946 7.27232 7.96446C7.78932 8.99246 8.73932 12.2695 11.7673 14.7455C13.1903 15.9165 15.4423 17.1165 16.3983 17.3935L16.4073 17.4075C17.3493 17.7215 18.2653 16.7375 18.7543 15.8465V15.8395C18.9713 15.4085 18.8993 15.0005 18.5823 14.7335C18.0203 14.1855 17.1723 13.5805 16.5063 13.1915Z" fill="#FF8753"/>
<path d="M14.1543 8.52141C15.1153 8.57741 15.5813 9.07941 15.6313 10.1104C15.6493 10.5134 16.2343 10.4854 16.2163 10.0824C16.1523 8.73641 15.4503 7.98641 14.1863 7.91641C13.8013 7.89341 13.7653 8.49841 14.1543 8.52141Z" fill="#FF8753"/>
</g>
<defs>
<clipPath id="clip0">
<rect width="24" height="24" fill="#FF8753" transform="translate(0.985352 0.41748)"/>
</clipPath>
</defs>
</svg>